<svg xmlns="http://www.w3.org/2000/svg" xmlns:xlink="http://www.w3.org/1999/xlink" xmlns:s="https://github.com/nturley/netlistsvg" width="548" height="375.5">
  <style>svg {
    stroke:#000;
    fill:none;
  }
  text {
    fill:#000;
    stroke:none;
    font-size:10px;
    font-weight: bold;
    font-family: "Courier New", monospace;
  }
  .nodelabel {
    text-anchor: middle;
  }
  .inputPortLabel {
    text-anchor: end;
  }
  .splitjoinBody {
    fill:#000;
  }</style>
  <g s:type="dff" transform="translate(441,236)" s:width="30" s:height="40" id="cell_$procdff$20">
    <s:alias val="$dff"/>
    <s:alias val="$_DFF_"/>
    <s:alias val="$_DFF_P_"/>
    <rect width="30" height="40" x="0" y="0" class="cell_$procdff$20"/>
    <path d="M0,35 L5,30 L0,25" class="cell_$procdff$20"/>
    <g s:x="30" s:y="10" s:pid="Q"/>
    <g s:x="0" s:y="30" s:pid="CLK"/>
    <g s:x="0" s:y="30" s:pid="C"/>
    <g s:x="0" s:y="10" s:pid="D"/>
  </g>
  <g s:type="dff" transform="translate(441,323.5)" s:width="30" s:height="40" id="cell_$procdff$21">
    <s:alias val="$dff"/>
    <s:alias val="$_DFF_"/>
    <s:alias val="$_DFF_P_"/>
    <rect width="30" height="40" x="0" y="0" class="cell_$procdff$21"/>
    <path d="M0,35 L5,30 L0,25" class="cell_$procdff$21"/>
    <g s:x="30" s:y="10" s:pid="Q"/>
    <g s:x="0" s:y="30" s:pid="CLK"/>
    <g s:x="0" s:y="30" s:pid="C"/>
    <g s:x="0" s:y="10" s:pid="D"/>
  </g>
  <g s:type="mux" transform="translate(112,108)" s:width="20" s:height="40" id="cell_$procmux$12">
    <s:alias val="$pmux"/>
    <s:alias val="$mux"/>
    <s:alias val="$_MUX_"/>
    <path d="M0,0 L20,10 L20,30 L0,40 Z" class="cell_$procmux$12"/>
    <g s:x="0" s:y="10" s:pid="A"/>
    <g s:x="0" s:y="30" s:pid="B"/>
    <g s:x="10" s:y="35" s:pid="S"/>
    <g s:x="20" s:y="20" s:pid="Y"/>
  </g>
  <g s:type="mux" transform="translate(171.33333333333334,168)" s:width="20" s:height="40" id="cell_$procmux$15">
    <s:alias val="$pmux"/>
    <s:alias val="$mux"/>
    <s:alias val="$_MUX_"/>
    <path d="M0,0 L20,10 L20,30 L0,40 Z" class="cell_$procmux$15"/>
    <g s:x="0" s:y="10" s:pid="A"/>
    <g s:x="0" s:y="30" s:pid="B"/>
    <g s:x="10" s:y="35" s:pid="S"/>
    <g s:x="20" s:y="20" s:pid="Y"/>
  </g>
  <g s:type="mux" transform="translate(244.33333333333334,263.5)" s:width="20" s:height="40" id="cell_$procmux$18">
    <s:alias val="$pmux"/>
    <s:alias val="$mux"/>
    <s:alias val="$_MUX_"/>
    <path d="M0,0 L20,10 L20,30 L0,40 Z" class="cell_$procmux$18"/>
    <g s:x="0" s:y="10" s:pid="A"/>
    <g s:x="0" s:y="30" s:pid="B"/>
    <g s:x="10" s:y="35" s:pid="S"/>
    <g s:x="20" s:y="20" s:pid="Y"/>
  </g>
  <g s:type="mux" transform="translate(112,23)" s:width="20" s:height="40" id="cell_$procmux$9">
    <s:alias val="$pmux"/>
    <s:alias val="$mux"/>
    <s:alias val="$_MUX_"/>
    <path d="M0,0 L20,10 L20,30 L0,40 Z" class="cell_$procmux$9"/>
    <g s:x="0" s:y="10" s:pid="A"/>
    <g s:x="0" s:y="30" s:pid="B"/>
    <g s:x="10" s:y="35" s:pid="S"/>
    <g s:x="20" s:y="20" s:pid="Y"/>
  </g>
  <g s:type="reduce_xor" transform="translate(240,323.5)" s:width="33" s:height="25" id="cell_$xor$rtl/d_ff.sv:28$4">
    <s:alias val="$xor"/>
    <s:alias val="$reduce_xor"/>
    <s:alias val="$_XOR_"/>
    <path d="M3,0 A30 25 0 0 1 3,25 A30 25 0 0 0 33,12.5 A30 25 0 0 0 3,0" class="cell_$xor$rtl/d_ff.sv:28$4"/>
    <path d="M0,0 A30 25 0 0 1 0,25" class="cell_$xor$rtl/d_ff.sv:28$4"/>
    <g s:x="3" s:y="5" s:pid="A"/>
    <g s:x="3" s:y="20" s:pid="B"/>
    <g s:x="33" s:y="12.5" s:pid="Y"/>
  </g>
  <g s:type="reduce_xor" transform="translate(308,331)" s:width="33" s:height="25" id="cell_$xor$rtl/d_ff.sv:28$5">
    <s:alias val="$xor"/>
    <s:alias val="$reduce_xor"/>
    <s:alias val="$_XOR_"/>
    <path d="M3,0 A30 25 0 0 1 3,25 A30 25 0 0 0 33,12.5 A30 25 0 0 0 3,0" class="cell_$xor$rtl/d_ff.sv:28$5"/>
    <path d="M0,0 A30 25 0 0 1 0,25" class="cell_$xor$rtl/d_ff.sv:28$5"/>
    <g s:x="3" s:y="5" s:pid="A"/>
    <g s:x="3" s:y="20" s:pid="B"/>
    <g s:x="33" s:y="12.5" s:pid="Y"/>
  </g>
  <g s:type="reduce_xor" transform="translate(167,108)" s:width="33" s:height="25" id="cell_$xor$rtl/d_ff.sv:29$6">
    <s:alias val="$xor"/>
    <s:alias val="$reduce_xor"/>
    <s:alias val="$_XOR_"/>
    <path d="M3,0 A30 25 0 0 1 3,25 A30 25 0 0 0 33,12.5 A30 25 0 0 0 3,0" class="cell_$xor$rtl/d_ff.sv:29$6"/>
    <path d="M0,0 A30 25 0 0 1 0,25" class="cell_$xor$rtl/d_ff.sv:29$6"/>
    <g s:x="3" s:y="5" s:pid="A"/>
    <g s:x="3" s:y="20" s:pid="B"/>
    <g s:x="33" s:y="12.5" s:pid="Y"/>
  </g>
  <g s:type="reduce_xor" transform="translate(308,263.5)" s:width="33" s:height="25" id="cell_$xor$rtl/d_ff.sv:29$7">
    <s:alias val="$xor"/>
    <s:alias val="$reduce_xor"/>
    <s:alias val="$_XOR_"/>
    <path d="M3,0 A30 25 0 0 1 3,25 A30 25 0 0 0 33,12.5 A30 25 0 0 0 3,0" class="cell_$xor$rtl/d_ff.sv:29$7"/>
    <path d="M0,0 A30 25 0 0 1 0,25" class="cell_$xor$rtl/d_ff.sv:29$7"/>
    <g s:x="3" s:y="5" s:pid="A"/>
    <g s:x="3" s:y="20" s:pid="B"/>
    <g s:x="33" s:y="12.5" s:pid="Y"/>
  </g>
  <g s:type="inputExt" transform="translate(376,256)" s:width="30" s:height="20" id="cell_clk">
    <text x="15" y="-4" class="nodelabel cell_clk" s:attribute="ref">clk</text>
    <s:alias val="$_inputExt_"/>
    <path d="M0,0 L0,20 L15,20 L30,10 L15,0 Z" class="cell_clk"/>
    <g s:x="28" s:y="10" s:pid="Y"/>
  </g>
  <g s:type="inputExt" transform="translate(32,272.5)" s:width="30" s:height="20" id="cell_reset">
    <text x="15" y="-4" class="nodelabel cell_reset" s:attribute="ref">reset</text>
    <s:alias val="$_inputExt_"/>
    <path d="M0,0 L0,20 L15,20 L30,10 L15,0 Z" class="cell_reset"/>
    <g s:x="28" s:y="10" s:pid="Y"/>
  </g>
  <g s:type="outputExt" transform="translate(506,236)" s:width="30" s:height="20" id="cell_q">
    <text x="15" y="-4" class="nodelabel cell_q" s:attribute="ref">q</text>
    <s:alias val="$_outputExt_"/>
    <path d="M30,0 L30,20 L15,20 L0,10 L15,0 Z" class="cell_q"/>
    <g s:x="0" s:y="10" s:pid="A"/>
  </g>
  <g s:type="inputExt" transform="translate(32,43)" s:width="30" s:height="20" id="cell_d">
    <text x="15" y="-4" class="nodelabel cell_d" s:attribute="ref">d</text>
    <s:alias val="$_inputExt_"/>
    <path d="M0,0 L0,20 L15,20 L30,10 L15,0 Z" class="cell_d"/>
    <g s:x="28" s:y="10" s:pid="Y"/>
  </g>
  <g s:type="outputExt" transform="translate(506,323.5)" s:width="30" s:height="20" id="cell_out">
    <text x="15" y="-4" class="nodelabel cell_out" s:attribute="ref">out</text>
    <s:alias val="$_outputExt_"/>
    <path d="M30,0 L30,20 L15,20 L0,10 L15,0 Z" class="cell_out"/>
    <g s:x="0" s:y="10" s:pid="A"/>
  </g>
  <g s:type="constant" transform="translate(32,108)" s:width="30" s:height="20" id="cell_0">
    <text x="15" y="-4" class="nodelabel cell_0" s:attribute="ref">0</text>
    <s:alias val="$_constant_"/>
    <rect width="30" height="20" class="cell_0"/>
    <g s:x="30" s:y="10" s:pid="Y"/>
  </g>
  <g s:type="join" transform="translate(386,137.5)" s:width="4" s:height="40" id="cell_$join$,11,12,13,14,">
    <rect width="5" height="80" class="splitjoinBody" s:generic="body"/>
    <s:alias val="$_join_"/>
    <g s:x="5" s:y="20" s:pid="out"/>
    <g transform="translate(0,10)" s:x="0" s:y="10" s:pid="in0">
      <text x="-3" y="-4" class="inputPortLabel">0</text>
    </g>
    <g transform="translate(0,30)" s:x="0" s:y="10" s:pid="in0">
      <text x="-3" y="-4" class="inputPortLabel">1</text>
    </g>
    <g transform="translate(0,50)" s:x="0" s:y="10" s:pid="in0">
      <text x="-3" y="-4" class="inputPortLabel">2</text>
    </g>
    <g transform="translate(0,70)" s:x="0" s:y="10" s:pid="in0">
      <text x="-3" y="-4" class="inputPortLabel">3</text>
    </g>
  </g>
  <g s:type="join" transform="translate(387,313)" s:width="4" s:height="40" id="cell_$join$,15,16,">
    <rect width="5" height="40" class="splitjoinBody" s:generic="body"/>
    <s:alias val="$_join_"/>
    <g s:x="5" s:y="20" s:pid="out"/>
    <g transform="translate(0,10)" s:x="0" s:y="10" s:pid="in0">
      <text x="-3" y="-4" class="inputPortLabel">0</text>
    </g>
    <g transform="translate(0,30)" s:x="0" s:y="10" s:pid="in0">
      <text x="-3" y="-4" class="inputPortLabel">1</text>
    </g>
  </g>
  <g s:type="split" transform="translate(50,167.5)" s:width="5" s:height="40" id="cell_$split$,4,5,6,7,">
    <rect width="5" height="60" class="splitjoinBody" s:generic="body"/>
    <s:alias val="$_split_"/>
    <g s:x="0" s:y="20" s:pid="in"/>
    <g transform="translate(4,10)" s:x="4" s:y="10" s:pid="out0">
      <text x="5" y="-4">0</text>
    </g>
    <g transform="translate(4,30)" s:x="4" s:y="10" s:pid="out0">
      <text x="5" y="-4">1</text>
    </g>
    <g transform="translate(4,50)" s:x="4" s:y="10" s:pid="out0">
      <text x="5" y="-4">2</text>
    </g>
  </g>
  <line x1="404" x2="441" y1="266" y2="266" class="net_2"/>
  <line x1="404" x2="416" y1="266" y2="266" class="net_2"/>
  <line x1="416" x2="416" y1="266" y2="353.5" class="net_2"/>
  <circle cx="416" cy="266" r="2" style="fill:#000" class="net_2"/>
  <line x1="416" x2="441" y1="353.5" y2="353.5" class="net_2"/>
  <line x1="392" x2="416" y1="158" y2="158" class="net_11,12,13,14"/>
  <line x1="416" x2="416" y1="158" y2="246" class="net_11,12,13,14"/>
  <line x1="416" x2="441" y1="246" y2="246" class="net_11,12,13,14"/>
  <line x1="393" x2="441" y1="333.5" y2="333.5" class="net_15,16"/>
  <line x1="62" x2="112" y1="118" y2="118" class="net_19"/>
  <line x1="62" x2="82" y1="118" y2="118" class="net_19"/>
  <line x1="82" x2="82" y1="118" y2="178" class="net_19"/>
  <circle cx="82" cy="118" r="2" style="fill:#000" class="net_19"/>
  <line x1="82" x2="171.33333333333334" y1="178" y2="178" class="net_19"/>
  <line x1="62" x2="82" y1="118" y2="118" class="net_19"/>
  <line x1="82" x2="82" y1="118" y2="87" class="net_19"/>
  <line x1="82" x2="230" y1="87" y2="87" class="net_19"/>
  <line x1="230" x2="230" y1="87" y2="273.5" class="net_19"/>
  <circle cx="82" cy="87" r="2" style="fill:#000" class="net_19"/>
  <line x1="230" x2="244.33333333333334" y1="273.5" y2="273.5" class="net_19"/>
  <line x1="62" x2="82" y1="118" y2="118" class="net_19"/>
  <line x1="82" x2="82" y1="118" y2="33" class="net_19"/>
  <line x1="82" x2="112" y1="33" y2="33" class="net_19"/>
  <line x1="55" x2="72" y1="178" y2="178" class="net_4"/>
  <line x1="72" x2="72" y1="178" y2="138" class="net_4"/>
  <line x1="72" x2="112" y1="138" y2="138" class="net_4"/>
  <line x1="60" x2="92" y1="282.5" y2="282.5" class="net_3"/>
  <line x1="92" x2="92" y1="282.5" y2="168" class="net_3"/>
  <line x1="92" x2="122" y1="168" y2="168" class="net_3"/>
  <circle cx="92" cy="282.5" r="2" style="fill:#000" class="net_3"/>
  <circle cx="92" cy="168" r="2" style="fill:#000" class="net_3"/>
  <line x1="122" x2="122" y1="168" y2="143" class="net_3"/>
  <line x1="60" x2="181.33333333333334" y1="282.5" y2="282.5" class="net_3"/>
  <line x1="181.33333333333334" x2="181.33333333333334" y1="282.5" y2="203" class="net_3"/>
  <line x1="60" x2="92" y1="282.5" y2="282.5" class="net_3"/>
  <line x1="92" x2="92" y1="282.5" y2="313.5" class="net_3"/>
  <line x1="92" x2="254.33333333333334" y1="313.5" y2="313.5" class="net_3"/>
  <line x1="254.33333333333334" x2="254.33333333333334" y1="313.5" y2="298.5" class="net_3"/>
  <line x1="60" x2="92" y1="282.5" y2="282.5" class="net_3"/>
  <line x1="92" x2="92" y1="282.5" y2="98" class="net_3"/>
  <line x1="92" x2="122" y1="98" y2="98" class="net_3"/>
  <line x1="122" x2="122" y1="98" y2="58" class="net_3"/>
  <line x1="55" x2="171.33333333333334" y1="198" y2="198" class="net_5"/>
  <line x1="55" x2="102" y1="218" y2="218" class="net_6"/>
  <line x1="102" x2="102" y1="218" y2="293.5" class="net_6"/>
  <line x1="102" x2="244.33333333333334" y1="293.5" y2="293.5" class="net_6"/>
  <line x1="60" x2="112" y1="53" y2="53" class="net_8"/>
  <line x1="200" x2="220" y1="120.5" y2="120.5" class="net_17"/>
  <line x1="220" x2="220" y1="120.5" y2="328.5" class="net_17"/>
  <line x1="220" x2="243" y1="328.5" y2="328.5" class="net_17"/>
  <line x1="200" x2="220" y1="120.5" y2="120.5" class="net_17"/>
  <line x1="220" x2="220" y1="120.5" y2="252.5" class="net_17"/>
  <line x1="220" x2="293" y1="252.5" y2="252.5" class="net_17"/>
  <line x1="293" x2="293" y1="252.5" y2="268.5" class="net_17"/>
  <circle cx="220" cy="252.5" r="2" style="fill:#000" class="net_17"/>
  <line x1="293" x2="311" y1="268.5" y2="268.5" class="net_17"/>
  <line x1="191.33333333333334" x2="210" y1="188" y2="188" class="net_13"/>
  <line x1="210" x2="210" y1="188" y2="343.5" class="net_13"/>
  <circle cx="210" cy="188" r="2" style="fill:#000" class="net_13"/>
  <line x1="210" x2="243" y1="343.5" y2="343.5" class="net_13"/>
  <line x1="191.33333333333334" x2="386" y1="188" y2="188" class="net_13"/>
  <line x1="273" x2="311" y1="336" y2="336" class="net_18"/>
  <line x1="264.33333333333337" x2="283" y1="283.5" y2="283.5" class="net_14"/>
  <line x1="283" x2="283" y1="283.5" y2="351" class="net_14"/>
  <circle cx="283" cy="283.5" r="2" style="fill:#000" class="net_14"/>
  <line x1="283" x2="311" y1="351" y2="351" class="net_14"/>
  <line x1="264.33333333333337" x2="311" y1="283.5" y2="283.5" class="net_14"/>
  <line x1="264.33333333333337" x2="283" y1="283.5" y2="283.5" class="net_14"/>
  <line x1="283" x2="283" y1="283.5" y2="236" class="net_14"/>
  <line x1="283" x2="386.5" y1="236" y2="236" class="net_14"/>
  <line x1="386.5" x2="386.5" y1="236" y2="208.5" class="net_14"/>
  <line x1="132" x2="152" y1="43" y2="43" class="net_11"/>
  <line x1="152" x2="152" y1="43" y2="113" class="net_11"/>
  <circle cx="152" cy="43" r="2" style="fill:#000" class="net_11"/>
  <line x1="152" x2="170" y1="113" y2="113" class="net_11"/>
  <line x1="132" x2="361" y1="43" y2="43" class="net_11"/>
  <line x1="361" x2="361" y1="43" y2="148" class="net_11"/>
  <line x1="361" x2="386" y1="148" y2="148" class="net_11"/>
  <line x1="132" x2="170" y1="128" y2="128" class="net_12"/>
  <line x1="132" x2="142" y1="128" y2="128" class="net_12"/>
  <line x1="142" x2="142" y1="128" y2="76" class="net_12"/>
  <line x1="142" x2="351" y1="76" y2="76" class="net_12"/>
  <line x1="351" x2="351" y1="76" y2="168" class="net_12"/>
  <circle cx="142" cy="128" r="2" style="fill:#000" class="net_12"/>
  <line x1="351" x2="386" y1="168" y2="168" class="net_12"/>
  <line x1="471" x2="506" y1="246" y2="246" class="net_4,5,6,7"/>
  <line x1="471" x2="481" y1="246" y2="246" class="net_4,5,6,7"/>
  <line x1="481" x2="481" y1="246" y2="12" class="net_4,5,6,7"/>
  <line x1="481" x2="12" y1="12" y2="12" class="net_4,5,6,7"/>
  <line x1="12" x2="12" y1="12" y2="188" class="net_4,5,6,7"/>
  <circle cx="481" cy="246" r="2" style="fill:#000" class="net_4,5,6,7"/>
  <line x1="12" x2="50" y1="188" y2="188" class="net_4,5,6,7"/>
  <line x1="471" x2="506" y1="333.5" y2="333.5" class="net_9,10"/>
  <line x1="341" x2="351" y1="276" y2="276" class="net_15"/>
  <line x1="351" x2="351" y1="276" y2="323.5" class="net_15"/>
  <line x1="351" x2="387" y1="323.5" y2="323.5" class="net_15"/>
  <line x1="341" x2="387" y1="343.5" y2="343.5" class="net_16"/>
</svg>
